HIERARCHY
ROOT hip
{
	OFFSET 0.000000 0.000000 0.000000 
	CHANNELS 6 Xposition Yposition Zposition Xrotation Zrotation Yrotation
	JOINT abdomen
	{
		OFFSET 0.000000 3.402643 0.000000 
		CHANNELS 3 Xrotation Zrotation Yrotation
		JOINT chest
		{
			OFFSET 0.000000 8.438565 -0.680529 
			CHANNELS 3 Xrotation Zrotation Yrotation
			JOINT neck
			{
				OFFSET 0.000000 10.207942 -0.272212 
				CHANNELS 3 Xrotation Zrotation Yrotation
				JOINT head
				{
					OFFSET 0.000000 3.130431 0.000000 
					CHANNELS 3 Xrotation Zrotation Yrotation
					End Site
					{
						OFFSET 0.000000 3.130435 0.000000 
					}
				}
			}
			JOINT lCollar
			{
				OFFSET 3.470700 6.669187 -0.816635 
				CHANNELS 3 Yrotation Zrotation Xrotation
				JOINT lShldr
				{
					OFFSET 3.198488 0.000000 0.000000 
					CHANNELS 3 Zrotation Yrotation Xrotation
					JOINT lForeArm
					{
						OFFSET 10.139888 0.000000 0.000000 
						CHANNELS 3 Yrotation Zrotation Xrotation
						JOINT lHand
						{
							OFFSET 8.370511 0.000000 0.000000 
							CHANNELS 3 Zrotation Yrotation Xrotation
							End Site
							{
								OFFSET 4.083176 0.000000 0.000000 
							}
						}
					}
				}
			}
			JOINT rCollar
			{
				OFFSET -3.470700 6.669187 -0.816635 
				CHANNELS 3 Yrotation Zrotation Xrotation
				JOINT rShldr
				{
					OFFSET -3.198488 0.000000 0.000000 
					CHANNELS 3 Zrotation Yrotation Xrotation
					JOINT rForeArm
					{
						OFFSET -10.139888 0.000000 0.000000 
						CHANNELS 3 Yrotation Zrotation Xrotation
						JOINT rHand
						{
							OFFSET -8.370511 0.000000 0.000000 
							CHANNELS 3 Zrotation Yrotation Xrotation
							End Site
							{
								OFFSET -4.083176 0.000000 0.000000 
							}
						}
					}
				}
			}
		}
	}
	JOINT lThigh
	{
		OFFSET 5.308129 -1.633274 1.361059 
		CHANNELS 3 Xrotation Zrotation Yrotation
		JOINT lShin
		{
			OFFSET -2.041588 -20.007561 0.000000 
			CHANNELS 3 Xrotation Zrotation Yrotation
			JOINT lFoot
			{
				OFFSET 0.000000 -19.190928 -1.224953 
				CHANNELS 3 Xrotation Yrotation Zrotation
				End Site
				{
					OFFSET 0.000000 -2.449906 4.627600 
				}
			}
		}
	}
	JOINT rThigh
	{
		OFFSET -5.308129 -1.633274 1.361059 
		CHANNELS 3 Xrotation Zrotation Yrotation
		JOINT rShin
		{
			OFFSET 2.041588 -20.007561 0.000000 
			CHANNELS 3 Xrotation Zrotation Yrotation
			JOINT rFoot
			{
				OFFSET 0.000000 -19.190928 -1.224953 
				CHANNELS 3 Xrotation Yrotation Zrotation
				End Site
				{
					OFFSET 0.000000 -2.449906 4.627600 
				}
			}
		}
	}
}
MOTION
Frames: 16
Frame Time: 0.033333
13.327876 40.192989 12.332357 -45.996094 21.894533 -163.281250 29.822811 -7.874106 -5.629282 -29.365234 9.599609 0.978191 51.063168 8.107644 2.471410 -105.009766 3.837891 9.277345 2.000000 -2.000000 0.000000 -105.322266 26.230467 -37.841793 -134.534378 1.921174 -2.670563 -71.113098 16.325739 -72.515869 -2.000000 2.000000 0.000000 112.333984 -28.916016 -51.748043 137.839462 -2.193726 -2.862047 68.135597 -31.558453 -59.178848 -98.065025 25.116966 -10.366606 75.734619 -1.589767 -5.051921 -22.250948 -8.178715 -6.210460 -96.890747 -17.332840 -9.594406 77.814812 1.015591 4.527441 -18.823015 11.641468 14.884795 
13.071675 40.122089 12.360131 -45.771481 22.402344 -162.691589 29.822811 -7.874106 -5.629282 -29.365234 9.599609 0.978191 51.063168 8.107644 2.471410 -104.658203 3.710937 8.388672 2.000000 -2.000000 0.000000 -105.761719 26.191406 -37.358971 -134.346954 2.236877 -2.288386 -71.917915 16.214924 -71.743576 -2.000000 2.000000 0.000000 111.679688 -29.960939 -51.201172 137.841873 -2.335165 -2.616010 68.715317 -31.933565 -59.538616 -98.398415 24.619207 -10.368971 75.909981 -1.582324 -5.070167 -23.001461 -8.692862 -6.410571 -96.949615 -17.567408 -8.812355 77.993469 0.996085 4.708389 -19.429188 10.571248 15.208960 
12.788053 40.082699 12.401673 -45.585938 22.900391 -162.089844 29.822811 -7.874106 -5.629282 -29.365234 9.599609 0.978191 51.063168 8.107644 2.471410 -104.326164 3.593750 7.490846 2.000000 -2.000000 0.000000 -106.113281 26.181643 -37.300373 -134.185043 2.063202 -2.415157 -72.276237 16.401644 -71.197746 -2.000000 2.000000 0.000000 111.455078 -30.947262 -51.318356 138.017090 -2.346046 -2.597484 68.715317 -31.933565 -59.538616 -98.732819 23.934566 -10.786169 76.467781 -1.882649 -4.986551 -23.285812 -9.255934 -6.935775 -96.980003 -17.782667 -8.627069 78.002495 1.005844 4.735894 -19.822426 9.401855 14.945827 
12.484989 40.051186 12.456985 -45.615234 23.457031 -161.841812 29.822811 -7.874106 -5.629282 -29.365234 9.599609 0.978191 51.063168 8.107644 2.471410 -103.974609 3.466797 6.425782 2.000000 -2.000000 0.000000 -106.455078 26.220703 -37.378494 -134.187637 2.106281 -2.515454 -72.336243 16.375721 -71.675339 -2.000000 2.000000 0.000000 111.669922 -31.552734 -51.318359 137.841888 -2.325416 -2.615445 68.642632 -31.997982 -59.022179 -98.847450 23.202099 -10.573211 76.777306 -1.505141 -4.860635 -23.735773 -9.648244 -7.048169 -97.018791 -17.987625 -7.885789 77.993469 0.996086 4.708391 -20.123480 8.523335 14.912552 
12.153458 40.059059 12.529425 -45.419922 23.945313 -161.236267 29.822811 -7.874106 -5.629282 -29.365234 9.599609 0.978191 51.063168 8.107644 2.471410 -103.642578 3.242187 5.674381 2.000000 -2.000000 0.000000 -106.601563 26.269533 -37.841797 -134.358612 1.911425 -2.669996 -72.499931 16.404625 -72.294960 -2.000000 2.000000 0.000000 111.503906 -31.816408 -50.966797 137.841888 -2.325416 -2.615445 68.608414 -32.064568 -58.851479 -98.779991 22.332933 -10.560744 76.813637 -1.863133 -5.155138 -24.312954 -10.070695 -7.188954 -96.881691 -18.026751 -7.208261 77.992760 0.996109 4.727594 -20.181131 7.447362 15.137775 
11.811050 40.090580 12.621302 -45.244141 24.453125 -160.816269 29.822811 -7.874106 -5.629282 -29.365234 9.599609 0.978191 51.063168 8.107644 2.471410 -103.300781 2.998047 4.746604 2.000000 -2.000000 0.000000 -106.874992 26.425777 -37.856987 -134.534378 1.921174 -2.670563 -72.583580 16.311573 -72.941032 -2.000000 2.000000 0.000000 111.826172 -32.001953 -51.001270 138.017380 -2.335731 -2.606663 68.749001 -32.366093 -58.989380 -99.114525 21.630121 -10.414075 76.990456 -1.667884 -5.021330 -24.500708 -10.342498 -7.923164 -96.776459 -18.271370 -6.346258 77.641075 1.035244 4.741146 -20.133886 6.379564 14.944193 
11.454364 40.177227 12.720359 -45.048828 24.970703 -160.191193 29.822811 -7.874106 -5.629282 -29.365234 9.599609 0.978191 51.063168 8.107644 2.471410 -102.958984 2.763671 3.984846 2.000000 -2.000000 0.000000 -106.728516 26.630859 -37.563984 -134.522705 2.246626 -2.288954 -72.583549 16.155045 -72.748619 -2.000000 2.000000 0.000000 111.816406 -31.708986 -51.210934 137.826080 -2.346745 -2.753578 68.543625 -31.904329 -59.404812 -98.853844 20.732094 -10.357370 76.990807 -1.667874 -5.011728 -24.566248 -10.719580 -7.872327 -96.441315 -18.456007 -6.078683 77.290382 1.093796 4.740549 -19.772259 5.311903 15.131070 
11.087169 40.279652 12.830870 -44.882813 25.488283 -159.751648 29.822811 -7.874106 -5.629282 -29.365234 9.599609 0.978191 51.063168 8.107644 2.471410 -102.636719 2.529297 3.046875 2.000000 -2.000000 0.000000 -106.425781 26.875002 -37.456524 -134.346954 2.236877 -2.288386 -72.559914 16.222174 -72.016495 -2.000000 2.000000 0.000000 111.816406 -31.708986 -51.210934 137.826080 -2.346745 -2.753578 68.261566 -31.927633 -59.175194 -98.761559 19.862713 -9.997890 76.796127 -1.501689 -4.878788 -24.493910 -10.714149 -8.075191 -96.315048 -18.680870 -5.395368 76.745155 0.937424 4.561368 -19.577999 4.448564 15.138868 
10.710104 40.429333 12.958042 -44.804684 25.800781 -159.194962 29.822811 -7.874106 -5.629282 -29.365234 9.599609 0.978191 51.063168 8.107644 2.471410 -102.333984 1.953125 2.167969 2.000000 -2.000000 0.000000 -106.220703 26.855469 -37.324219 -134.358612 1.911425 -2.669996 -72.734535 16.232149 -72.062584 -2.000000 2.000000 0.000000 111.884766 -31.542971 -51.382061 137.826080 -2.346745 -2.753578 68.543625 -31.904329 -59.404812 -98.516220 18.955481 -9.803316 76.664490 -1.696331 -4.852435 -24.488338 -10.704910 -8.283151 -96.004471 -18.730387 -4.613885 76.235657 1.171898 4.739415 -19.018183 3.232927 15.236572 
10.333962 40.602650 13.099335 -44.580078 26.191406 -158.814041 29.822811 -7.874106 -5.629282 -29.365234 9.599609 0.978191 51.063168 8.107644 2.471410 -102.392578 1.201172 1.015830 2.000000 -2.000000 0.000000 -105.996094 26.826172 -36.982426 -134.358612 1.911425 -2.669996 -73.276619 16.126207 -72.835663 -2.000000 2.000000 0.000000 112.333984 -31.191404 -51.513668 138.017380 -2.335731 -2.606663 68.516479 -32.127907 -59.634190 -98.281654 18.241653 -9.460694 76.472977 -1.706768 -5.007793 -24.246599 -10.898526 -8.046578 -95.719917 -18.983685 -3.456761 75.695923 1.191407 4.530518 -18.715792 2.073420 16.096718 
9.961143 40.783840 13.249536 -44.580078 26.621096 -158.452652 29.822811 -7.874106 -5.629282 -29.365234 9.599609 0.978191 51.063168 8.107644 2.471410 -102.324219 0.419922 1.103587 2.000000 -2.000000 0.000000 -105.507813 26.679689 -36.108902 -134.008331 1.997226 -2.372195 -73.500359 16.598835 -73.712273 -2.000000 2.000000 0.000000 112.539063 -30.878906 -51.250000 137.841888 -2.325416 -2.615445 68.659332 -32.400196 -59.479103 -98.174416 17.334373 -8.933506 76.083572 -1.433124 -5.048960 -24.100231 -10.653336 -8.252653 -95.395668 -19.335035 -3.164136 74.993820 1.123057 4.687327 -17.842844 2.084801 15.638652 
9.596473 40.949284 13.412349 -44.277344 26.904299 -157.866684 29.822811 -7.874106 -5.629282 -29.365234 9.599609 0.978191 51.063168 8.107644 2.471410 -102.001953 0.039062 3.095710 2.000000 -2.000000 0.000000 -105.156250 26.582031 -35.562035 -134.183823 2.007543 -2.363018 -73.930893 16.721384 -74.357391 -2.000000 2.000000 0.000000 112.783203 -30.205078 -51.196316 137.841873 -2.335165 -2.616010 69.615288 -32.777142 -59.910854 -97.932495 16.620169 -8.685709 75.743591 -1.540749 -5.045022 -23.614611 -10.529636 -7.859650 -95.227722 -19.588314 -2.755104 74.313599 1.357403 4.701849 -16.974882 1.444765 16.056408 
9.222069 41.122604 13.594371 -44.335938 27.031250 -157.700638 29.822811 -7.874106 -5.629282 -29.365234 9.599609 0.978191 51.063168 8.107644 2.471410 -101.484375 -0.019531 7.128903 2.000000 -2.000000 0.000000 -104.960938 27.294924 -35.156246 -134.346954 2.236877 -2.288386 -73.995262 16.470722 -74.293930 -2.000000 2.000000 0.000000 113.193359 -29.902342 -50.908203 137.841873 -2.335165 -2.616010 69.969688 -33.178944 -59.951939 -97.479630 15.887513 -8.144566 75.373108 -1.602015 -5.041492 -23.197670 -10.298137 -7.396506 -94.734543 -19.980305 -2.357862 73.421150 1.259822 4.699248 -15.875723 1.519991 16.304880 
8.827806 41.272285 13.814584 -44.335938 27.031250 -157.524857 29.822811 -7.874106 -5.629282 -29.365234 9.599609 0.978191 51.063168 8.107644 2.471410 -100.947266 0.009766 12.089844 2.000000 -2.000000 0.000000 -105.273438 27.587891 -35.302734 -134.358612 1.911425 -2.669996 -73.674393 16.618603 -73.172592 -2.000000 2.000000 0.000000 113.251953 -29.580078 -50.756775 137.841873 -2.335165 -2.616010 69.748146 -33.048931 -59.751354 -97.060051 14.980301 -7.601824 75.071152 -1.989784 -4.946980 -22.216007 -9.517098 -6.894615 -94.810928 -20.497332 -1.713671 73.070351 1.298900 4.681828 -14.641126 1.678886 16.661289 
8.447188 41.421967 14.051689 -44.414063 26.689453 -157.138672 29.822811 -7.874106 -5.629282 -29.365234 9.599609 0.978191 51.063168 8.107644 2.471410 -100.214844 0.166016 17.636719 2.000000 -2.000000 0.000000 -105.195313 28.095701 -35.000000 -134.182831 1.911425 -2.669996 -73.413071 16.280769 -72.518242 -2.000000 2.000000 0.000000 113.544922 -29.482422 -50.742188 137.666092 -2.335165 -2.616010 69.342422 -32.683407 -59.227226 -96.632721 14.247213 -7.057194 74.704468 -1.833835 -4.984234 -21.682283 -9.072745 -6.490625 -95.059868 -21.081734 -1.041667 72.543526 1.337908 4.660650 -13.074636 1.862431 17.019417 
8.098938 41.626801 14.273288 -44.531254 26.513674 -157.119141 29.822811 -7.874106 -5.629282 -29.365234 9.599609 0.978191 51.063168 8.107644 2.471410 -99.492180 0.292969 23.701223 2.000000 -2.000000 0.000000 -104.980469 28.554689 -34.443363 -134.182831 1.911425 -2.669996 -73.054626 15.937401 -71.767700 -2.000000 2.000000 0.000000 113.349602 -29.228514 -50.654293 137.666092 -2.335165 -2.616010 68.961060 -32.495491 -59.166035 -96.177841 13.671428 -6.027527 74.348778 -1.696804 -4.999582 -20.607635 -8.035913 -5.822240 -95.142891 -21.474014 -0.314792 72.191620 1.377002 4.671531 -11.324328 1.966334 17.110968 
